<?xml version="1.0" encoding="UTF-8" standalone="no"?>
<svg
   xmlns:dc="http://purl.org/dc/elements/1.1/"
   xmlns:cc="http://creativecommons.org/ns#"
   xmlns:rdf="http://www.w3.org/1999/02/22-rdf-syntax-ns#"
   xmlns:svg="http://www.w3.org/2000/svg"
   xmlns="http://www.w3.org/2000/svg"
   viewBox="0 0 335.54666 147.16"
   height="147.16"
   width="335.54666"
   xml:space="preserve"
   id="svg2"
   version="1.1"><metadata
     id="metadata8"><rdf:RDF><cc:Work
         rdf:about=""><dc:format>image/svg+xml</dc:format><dc:type
           rdf:resource="http://purl.org/dc/dcmitype/StillImage" /><dc:title></dc:title></cc:Work></rdf:RDF></metadata><defs
     id="defs6" /><g
     transform="matrix(1.3333333,0,0,-1.3333333,0,147.16)"
     id="g10"><g
       transform="scale(0.1)"
       id="g12"><path
         id="path14"
         style="fill:#110b09;fill-opacity:1;fill-rule:nonzero;stroke:none"
         d="m 1759.1,969.5 c 10.2,-2.699 20.6,-7.699 30.9,-11.5 24.1,-8.996 48.3,-20 73.4,-30.602 8,10.102 14.3,22.301 21.6,33.102 9,13.102 19.4,24.703 29.4,37 5.6,6.8 13.6,11.7 19.4,18.2 4.1,4.6 7,9.3 11.5,13.6 4.2,4 8.6,7.9 13.2,11.7 2.4,2 1.7,5.6 3.8,8 1.8,2.2 5.8,3.5 7.6,5.8 0.1,0.1 0.1,0.1 0.2,0.2 -36.8,32.4 -79.6,48.7 -128.2,48.7 -35.8,0 -69.3,-9 -100.4,-27 -31.4,-18.1 -55.7,-42.5 -72.9,-73.1 -4.8,-8.202 -8.9,-16.498 -12.4,-25.1 21.1,-2.199 42.4,-3.297 63.8,-3.699 13.2,-0.598 26,-1.903 39.1,-5.301 z m 237.3,58 c -0.9,-0.6 -1.8,-1.4 -2.7,-2.1 -27.7,-23.4 -49.6,-58.201 -59.4,-84.802 -2.3,-6.5 -3.7,-8.297 -1.9,-9.297 16.2,4.801 32.3,6.898 41,-4.102 12.4,0.403 16.6,-2.5 17,-10 -4.7,-1.199 -12,-1.601 -18,-4.101 -5.5,-9.899 -12.4,-18.696 -21.8,-25.395 -27.5,-25.203 -58.3,-45.305 -99.8,-49.203 -15.1,-2.5 -27.1,-5.203 -38.7,-24.402 -10.6,-15.2 -13.8,-17.797 -14.8,-11.395 -8.2,-9.504 -21.4,-16.703 -22.8,-10.101 -6.2,-7.102 -10,-7.204 -11.2,-0.403 -10.4,-4 -15.3,-3.101 -12.2,5 -10.8,-3.101 -13.7,0 -8.9,9.399 -12.7,2.101 -12.3,8.3 -3,17.406 -10,1.496 -15.5,11.199 27.5,17.098 7.9,1.898 15.6,3.597 21.5,7.796 11.5,8.102 16.3,20.106 26.5,28.301 -4.7,0.602 -8.1,2.301 -13.1,5.899 -4.6,3.5 -10.5,4.902 -16.5,7.804 -3.9,1.7 -7.8,3.301 -11.7,5 -21.7,9.895 -40.2,25.899 -60.3,32.196 -4.1,0 -7.3,1 -8.5,4.004 -4.5,0.199 -7,1.3 -7.5,3.398 -5.5,-0.199 -10.1,0.098 -8.5,4 -5.4,-0.801 -10.3,-1 -12.3,3.398 -5.3,-1.996 -8.6,-1.097 -9.7,2.7 -5.9,-0.395 -9,1.703 -9.3,6.203 -3.8,-0.699 -7.2,-1.102 -10,-0.699 -3.7,-15.704 -5.6,-32.098 -5.6,-49.301 0,-53.301 19,-100.297 57.2,-141.004 38.1,-39.293 85.8,-58.895 143,-58.895 55.3,0 102.3,19.098 141,57.196 38.1,38.101 57.2,85.703 57.2,142.703 0,47.601 -14.6,89.5 -43.7,125.699" /><path
         id="path16"
         style="fill:#110b09;fill-opacity:1;fill-rule:nonzero;stroke:none"
         d="M 201.801,1094.9 V 937.602 H 75.0977 V 1094.9 H 0 V 710.699 H 75.0977 V 868 H 201.801 V 710.699 H 275 V 1094.9 h -73.199" /><path
         id="path18"
         style="fill:#110b09;fill-opacity:1;fill-rule:nonzero;stroke:none"
         d="m 527.699,1023.4 v 71.5 h -209 V 710.699 h 209 v 71.5 h -137.5 V 868 h 137.5 v 69.602 h -137.5 v 85.798 h 137.5" /><path
         id="path20"
         style="fill:#110b09;fill-opacity:1;fill-rule:nonzero;stroke:none"
         d="m 810.398,1019.8 -37.699,-96.503 25,-62.5 H 694.102 L 746,992.801 l 37.398,96.599 -1.597,5.5 h -73.403 l -148.3,-384.201 h 75.101 l 32.203,78.703 h 156.996 l 28.598,-78.703 H 930 L 810.398,1019.8" /><path
         id="path22"
         style="fill:#110b09;fill-opacity:1;fill-rule:nonzero;stroke:none"
         d="m 926.402,1092.4 v -71.5 h 67.899 V 710.203 H 1069.1 V 1020.9 h 69.9 v 71.5 H 926.402" /><path
         id="path24"
         style="fill:#110b09;fill-opacity:1;fill-rule:nonzero;stroke:none"
         d="m 1553.7,1092.4 -19.8,-84.9 -1.4,-5.7 -0.2,-0.8 -1.1,-4.801 -34.7,-148.496 -69.6,244.697 h -58.8 l -69.9,-244.697 -55.3,244.697 h -71.4 l 87.7,-382.197 h 67.6 l 69.9,246.598 71.2,-246.598 h 69.8 l 58.6,256.098 4.7,20.5 24.2,105.599 h -71.5" /><path
         id="path26"
         style="fill:#110b09;fill-opacity:1;fill-rule:nonzero;stroke:none"
         d="M 2155.1,780.598 V 1094.9 h -71.3 V 710.699 h 178.5 v 69.899 h -107.2" /><path
         id="path28"
         style="fill:#110b09;fill-opacity:1;fill-rule:nonzero;stroke:none"
         d="m 2503.7,1023.4 v 71.5 H 2294.8 V 710.699 h 208.9 v 71.5 H 2366.3 V 868 h 137.4 v 69.602 h -137.4 v 85.798 h 137.4" /><path
         id="path30"
         style="fill:#110b09;fill-opacity:1;fill-rule:nonzero;stroke:none"
         d="m 435,642.602 v -71.403 h 67.898 V 260.398 h 74.801 v 310.801 h 69.899 v 71.403 H 435" /><path
         id="path32"
         style="fill:#110b09;fill-opacity:1;fill-rule:nonzero;stroke:none"
         d="M 904.398,645.102 V 487.801 h -126.8 v 157.301 h -75 V 261.004 h 75 v 157.293 h 126.8 V 261.004 H 977.5 v 384.098 h -73.102" /><path
         id="path34"
         style="fill:#110b09;fill-opacity:1;fill-rule:nonzero;stroke:none"
         d="M 1032.5,645.102 V 261.004 h 71.5 v 384.098 h -71.5" /><path
         id="path36"
         style="fill:#110b09;fill-opacity:1;fill-rule:nonzero;stroke:none"
         d="m 1368,573.602 v 71.5 H 1159 V 261.004 h 209 V 332.5 h -137.5 v 85.797 H 1368 v 69.504 h -137.5 v 85.801 H 1368" /><path
         id="path38"
         style="fill:#110b09;fill-opacity:1;fill-rule:nonzero;stroke:none"
         d="m 1591,446.297 c -1.4,1.101 -3.2,2.605 -5.3,4.402 -2.1,1.801 -4.6,4.102 -7.6,6.895 -4.4,4.004 -9.8,8.808 -16.2,14.406 -6.4,5.594 -13.9,11.902 -22.6,18.895 -14.3,12.609 -25.8,22.902 -34.7,30.91 -8.9,7.996 -15.2,13.797 -18.9,17.5 -3.5,6.191 -5.2,12.097 -5.2,17.597 0,7.293 2.9,13.301 8.8,17.797 4.6,4.801 12.3,7.203 23.1,7.203 19.8,0 38.9,-13.004 57.2,-39.101 L 1625.1,591 c -21.2,23.402 -40.3,39.5 -57.2,48.098 -17.2,9.504 -35.7,14.304 -55.5,14.304 -28.6,0 -53.5,-9.601 -74.8,-28.601 -20.3,-19.598 -30.5,-42.801 -30.5,-69.598 0,-17.996 6.6,-36.406 19.8,-55.305 12.4,-18.093 39.2,-44.296 80.3,-78.601 21.2,-17.395 35.5,-30.5 42.9,-39.297 5.8,-9.004 8.8,-17.902 8.8,-26.699 0,-9.004 -4.2,-17.305 -12.4,-25 -9.2,-7.199 -19.9,-10.801 -32.2,-10.801 -23.1,0 -43.9,17.305 -62.4,51.699 l -62.7,-37.297 c 28.1,-56.101 69.1,-84.195 123.2,-84.195 35.8,0 64.3,10.191 85.8,30.496 21.4,20 32.2,46.199 32.2,78.699 0,32.602 -13.1,61.797 -39.4,87.395" /><path
         id="path40"
         style="fill:#110b09;fill-opacity:1;fill-rule:nonzero;stroke:none"
         d="m 1853.4,446.297 c -1.5,1.101 -3.2,2.605 -5.4,4.402 -2.1,1.801 -4.6,4.102 -7.5,6.895 -4.4,4.004 -9.8,8.808 -16.2,14.406 -6.5,5.594 -14,11.902 -22.6,18.895 -14.3,12.609 -25.9,22.902 -34.8,30.91 -8.9,7.996 -15.1,13.797 -18.8,17.5 -3.5,6.191 -5.2,12.097 -5.2,17.597 0,7.293 2.9,13.301 8.8,17.797 4.5,4.801 12.2,7.203 23.1,7.203 19.8,0 38.8,-13.004 57.1,-39.101 L 1887.5,591 c -21.3,23.402 -40.3,39.5 -57.2,48.098 -17.2,9.504 -35.7,14.304 -55.5,14.304 -28.6,0 -53.6,-9.601 -74.8,-28.601 -20.4,-19.598 -30.6,-42.801 -30.6,-69.598 0,-17.996 6.6,-36.406 19.9,-55.305 12.4,-18.093 39.2,-44.296 80.2,-78.601 21.3,-17.395 35.6,-30.5 42.9,-39.297 5.9,-9.004 8.8,-17.902 8.8,-26.699 0,-9.004 -4.1,-17.305 -12.3,-25 -9.2,-7.199 -19.9,-10.801 -32.2,-10.801 -23.1,0 -43.9,17.305 -62.4,51.699 l -62.7,-37.297 c 28,-56.101 69.1,-84.195 123.2,-84.195 35.7,0 64.3,10.191 85.8,30.496 21.4,20 32.1,46.199 32.1,78.699 0,32.602 -13.1,61.797 -39.3,87.395" /><path
         id="path42"
         style="fill:#110b09;fill-opacity:1;fill-rule:nonzero;stroke:none"
         d="m 2145.5,573.602 v 71.5 h -209 V 261.004 h 209 V 332.5 H 2008 v 85.797 h 137.5 v 69.504 H 2008 v 85.801 h 137.5" /><path
         id="path44"
         style="fill:#110b09;fill-opacity:1;fill-rule:nonzero;stroke:none"
         d="M 2434.2,645.102 V 391.297 L 2270,645.102 h -69.6 V 261.004 h 71.3 v 251.894 l 166,-251.894 h 69.9 v 384.098 h -73.4" /><path
         id="path46"
         style="fill:#110b09;fill-opacity:1;fill-rule:nonzero;stroke:none"
         d="M 1642,160.398 V 39.8984 c 0,-19.5 -7.6,-28.0976 -22.4,-28.0976 -14.5,0 -19.6,5 -26.3,16 L 1581.1,21 c 8.5,-14.19922 17.5,-21 37.6,-21 23.3,0 38.5,11.8008 38.5,35.5 V 160.398 H 1642" /><path
         id="path48"
         style="fill:#110b09;fill-opacity:1;fill-rule:nonzero;stroke:none"
         d="m 1721.8,14 v 64.5 h 57.4 v 11.8008 h -57.4 v 58.3012 h 79.8 v 11.796 h -95 V 2.19922 H 1806 V 14 h -84.2" /><path
         id="path50"
         style="fill:#110b09;fill-opacity:1;fill-rule:nonzero;stroke:none"
         d="M 1984.6,160.398 1948.4,28.5 h -0.5 l -32.5,131.898 h -15.2 L 1866.9,28.5 h -0.4 l -35.6,131.898 h -15.4 L 1859.6,2.19922 h 15.2 l 32.5,130.19878 h 0.5 L 1940.3,2.19922 h 15.2 l 44.6,158.19878 h -15.5" /><path
         id="path52"
         style="fill:#110b09;fill-opacity:1;fill-rule:nonzero;stroke:none"
         d="m 2042.3,14 v 64.5 h 57.4 v 11.8008 h -57.4 v 58.3012 h 79.8 v 11.796 h -95 V 2.19922 h 99.4 V 14 h -84.2" /><path
         id="path54"
         style="fill:#110b09;fill-opacity:1;fill-rule:nonzero;stroke:none"
         d="m 2170.6,14 v 146.398 h -15.3 V 2.19922 h 89.6 V 14 h -74.3" /><path
         id="path56"
         style="fill:#110b09;fill-opacity:1;fill-rule:nonzero;stroke:none"
         d="m 2327,86.3008 h -41.1 v 62.3012 h 41.1 c 24,0 36,-11.602 36,-31.102 0,-19.5 -13.8,-31.1992 -36,-31.1992 z m 16.6,-9.1992 c 23.8,5.6992 34.6,19.5 34.6,40.3984 0,25.797 -18.4,42.898 -51.2,42.898 h -56.3 V 2.19922 h 15.2 V 74.5 h 43.2 l 38.7,-72.30078 h 16.7 l -40.9,74.90238" /><path
         id="path58"
         style="fill:#110b09;fill-opacity:1;fill-rule:nonzero;stroke:none"
         d="m 2499.6,160.398 -43.9,-78.1988 -41,78.1988 h -17.1 l 51,-91.1988 V 2.19922 h 15.2 V 69.1992 l 52.8,91.1988 h -17" /></g></g></svg>